<svg xmlns="http://www.w3.org/2000/svg" xmlns:xlink="http://www.w3.org/1999/xlink" width="250" zoomAndPan="magnify" viewBox="0 0 187.5 52.499999" height="70" preserveAspectRatio="xMidYMid meet" version="1.2"><defs><clipPath id="8ad7798dc9"><path d="M 6 14 L 56 14 L 56 37 L 6 37 Z M 6 14 "/></clipPath><clipPath id="a570afa866"><path d="M 31.261719 -4.621094 L 61.730469 25.847656 L 31.261719 56.316406 L 0.792969 25.847656 Z M 31.261719 -4.621094 "/></clipPath><clipPath id="bc180101c3"><path d="M 31.261719 -4.621094 L 61.730469 25.847656 L 31.261719 56.316406 L 0.792969 25.847656 Z M 31.261719 -4.621094 "/></clipPath></defs><g id="d8c00ce9bd"><g clip-rule="nonzero" clip-path="url(#8ad7798dc9)"><g clip-rule="nonzero" clip-path="url(#a570afa866)"><g clip-rule="nonzero" clip-path="url(#bc180101c3)"><path style=" stroke:none;fill-rule:nonzero;fill:#ffffff;fill-opacity:1;" d="M 44.855469 36.714844 L 33.984375 36.714844 C 27.976562 36.714844 23.109375 31.847656 23.113281 25.84375 C 23.109375 24.898438 23.269531 23.996094 23.496094 23.125 L 28.546875 23.125 C 28.789062 23.125 29.007812 23.203125 29.230469 23.261719 C 28.808594 24.035156 28.546875 24.902344 28.546875 25.84375 C 28.546875 28.839844 30.988281 31.277344 33.984375 31.277344 L 44.855469 31.277344 C 47.851562 31.277344 50.292969 28.839844 50.289062 25.839844 C 50.292969 22.84375 47.851562 20.40625 44.855469 20.40625 L 40.988281 20.40625 C 40.027344 18.230469 38.503906 16.375 36.617188 14.96875 L 44.855469 14.96875 C 50.859375 14.972656 55.726562 19.839844 55.726562 25.84375 C 55.726562 31.847656 50.859375 36.714844 44.855469 36.714844 Z M 21.542969 31.277344 L 17.675781 31.28125 C 14.675781 31.277344 12.238281 28.839844 12.238281 25.84375 C 12.238281 22.84375 14.675781 20.40625 17.675781 20.40625 L 28.546875 20.40625 C 31.546875 20.40625 33.984375 22.84375 33.984375 25.84375 C 33.984375 26.78125 33.722656 27.648438 33.304688 28.421875 C 33.527344 28.480469 33.742188 28.5625 33.984375 28.5625 L 39.035156 28.5625 C 39.261719 27.6875 39.417969 26.789062 39.417969 25.84375 C 39.417969 19.839844 34.550781 14.972656 28.546875 14.972656 L 17.675781 14.972656 C 11.671875 14.972656 6.804688 19.839844 6.800781 25.84375 C 6.804688 31.847656 11.671875 36.714844 17.675781 36.714844 L 25.914062 36.714844 C 24.027344 35.3125 22.5 33.457031 21.542969 31.277344 Z M 21.542969 31.277344 "/></g></g></g><g style="fill:#ffffff;fill-opacity:1;"><g transform="translate(58.994297, 35.957577)"><path style="stroke:none" d="M 2.34375 -21.765625 L 9.328125 -21.765625 L 9.328125 -5.5625 L 20.5 -5.5625 L 20.5 0 L 2.34375 0 Z M 2.34375 -21.765625 "/></g></g><g style="fill:#ffffff;fill-opacity:1;"><g transform="translate(80.093109, 35.957577)"><path style="stroke:none" d="M 24.015625 -8.765625 C 24.015625 -5.785156 23.078125 -3.515625 21.203125 -1.953125 C 19.328125 -0.398438 16.65625 0.375 13.1875 0.375 C 9.726562 0.375 7.054688 -0.398438 5.171875 -1.953125 C 3.285156 -3.515625 2.34375 -5.785156 2.34375 -8.765625 L 2.34375 -21.765625 L 9.328125 -21.765625 L 9.328125 -8.859375 C 9.328125 -7.640625 9.65625 -6.664062 10.3125 -5.9375 C 10.96875 -5.207031 11.914062 -4.84375 13.15625 -4.84375 C 14.40625 -4.84375 15.359375 -5.210938 16.015625 -5.953125 C 16.679688 -6.691406 17.015625 -7.660156 17.015625 -8.859375 L 17.015625 -21.765625 L 24.015625 -21.765625 Z M 24.015625 -8.765625 "/></g></g><g style="fill:#ffffff;fill-opacity:1;"><g transform="translate(106.442895, 35.957577)"><path style="stroke:none" d="M 17.90625 0 L 8.765625 -10.5625 L 8.765625 0 L 2.34375 0 L 2.34375 -21.765625 L 8.453125 -21.765625 L 17.59375 -11.046875 L 17.59375 -21.765625 L 24.015625 -21.765625 L 24.015625 0 Z M 17.90625 0 "/></g></g><g style="fill:#ffffff;fill-opacity:1;"><g transform="translate(132.792682, 35.957577)"><path style="stroke:none" d="M 13.15625 -22.140625 C 16.914062 -22.140625 19.816406 -21.179688 21.859375 -19.265625 C 23.910156 -17.347656 24.9375 -14.554688 24.9375 -10.890625 C 24.9375 -7.210938 23.910156 -4.414062 21.859375 -2.5 C 19.816406 -0.582031 16.914062 0.375 13.15625 0.375 C 9.40625 0.375 6.507812 -0.578125 4.46875 -2.484375 C 2.4375 -4.390625 1.421875 -7.191406 1.421875 -10.890625 C 1.421875 -14.578125 2.4375 -17.375 4.46875 -19.28125 C 6.507812 -21.1875 9.40625 -22.140625 13.15625 -22.140625 Z M 13.15625 -16.921875 C 11.664062 -16.921875 10.53125 -16.46875 9.75 -15.5625 C 8.96875 -14.65625 8.578125 -13.429688 8.578125 -11.890625 L 8.578125 -9.875 C 8.578125 -8.332031 8.96875 -7.109375 9.75 -6.203125 C 10.53125 -5.296875 11.664062 -4.84375 13.15625 -4.84375 C 14.65625 -4.84375 15.800781 -5.296875 16.59375 -6.203125 C 17.382812 -7.109375 17.78125 -8.332031 17.78125 -9.875 L 17.78125 -11.890625 C 17.78125 -13.429688 17.382812 -14.65625 16.59375 -15.5625 C 15.800781 -16.46875 14.65625 -16.921875 13.15625 -16.921875 Z M 13.15625 -16.921875 "/></g></g><g style="fill:#ffffff;fill-opacity:1;"><g transform="translate(159.142468, 35.957577)"><path style="stroke:none" d="M 16.921875 0 L 16.015625 -3.0625 L 8.390625 -3.0625 L 7.46875 0 L 0.3125 0 L 8.265625 -21.765625 L 16.390625 -21.765625 L 24.328125 0 Z M 9.84375 -7.9375 L 14.546875 -7.9375 L 12.28125 -15.6875 L 12.15625 -15.6875 Z M 9.84375 -7.9375 "/></g></g></g></svg>